<?xml version="1.0" encoding="utf-8"?>
<!-- Generator: Adobe Illustrator 19.0.0, SVG Export Plug-In . SVG Version: 6.00 Build 0)  -->
<svg version="1.1" id="Layer_1" xmlns="http://www.w3.org/2000/svg" xmlns:xlink="http://www.w3.org/1999/xlink" x="0px" y="0px"
	 viewBox="0 0 595.3 841.9" style="enable-background:new 0 0 595.3 841.9;" xml:space="preserve">
<g transform="matrix(1,0,0,1,-49.5899,-60.2068)">
	<g transform="matrix(0.462821,0,0,0.438949,335.43,161.318)">
		<g transform="matrix(1,0,0,1,-617.603,-230.348)">
			<path d="M1110.6,1127.6L1110.6,1127.6L1110.6,1127.6L1110.6,1127.6z"/>
		</g>
		<g transform="matrix(1,0,0,1,-617.603,-230.348)">
			<path d="M528.9,998.5L528.9,998.5L528.9,998.5L528.9,998.5z"/>
		</g>
		<g transform="matrix(1,0,0,1,-617.603,-230.348)">
			<path d="M318.5,1217.9L318.5,1217.9L318.5,1217.9L318.5,1217.9z"/>
		</g>
		<g transform="matrix(1,0,0,1,-617.603,-230.348)">
			<path d="M428,1129.3L428,1129.3L428,1129.3z"/>
		</g>
		<g transform="matrix(1,0,0,1,-617.603,-230.348)">
			<path d="M979,1077.4L979,1077.4L979,1077.4L979,1077.4z"/>
		</g>
		<g transform="matrix(1,0,0,1,-617.603,-230.348)">
			<path d="M766.6,649.1c5.9,8.5,17.2,12.5,27.4,9.5c2.6-0.8,5-1.9,7.2-3.4c11.1-7.8,13.9-23.3,6.1-34.4
				c-4.6-6.6-12.3-10.6-20.6-10.6c-5.1,0-9.9,1.5-14,4.3C761.5,622.4,758.8,637.9,766.6,649.1"/>
		</g>
		<g transform="matrix(1,0,0,1,-617.603,-230.348)">
			<path d="M703.3,587.2c0.4,7.7,3.8,14.7,9.5,19.7c7.5,6.8,17.9,9.2,27.5,6.4c5.2-1.5,9.8-4.5,13.3-8.5c5.2-5.7,7.8-13.1,7.4-20.8
				c-0.4-7.7-3.8-14.8-9.5-19.9c-5-4.5-11.8-7-19-7c-8.5,0-16.3,3.4-21.6,9.3C705.5,572.1,702.9,579.4,703.3,587.2"/>
		</g>
		<g transform="matrix(1,0,0,1,-617.603,-230.348)">
			<path d="M639.9,572.9c5,2.8,10.6,4.2,16.3,4.2c3.2,0,6.4-0.5,9.5-1.4c8.5-2.5,15.6-8.2,19.8-15.9c4.4-7.8,5.4-16.9,3-25.5
				c-2.5-8.6-8.1-15.8-16-20.1c-4.6-2.5-10-3.9-15.5-3.9c-12.6,0-24.4,6.7-30.1,17C618,543.6,623.9,564,639.9,572.9"/>
		</g>
		<g transform="matrix(1,0,0,1,-617.603,-230.348)">
			<path d="M547.6,553.4c6.8,1.9,14.5,1.9,21.5-0.2c13-3.8,23-13.9,26.7-26.8c2.8-10,1.6-20.6-3.4-29.7
				c-5.1-9.1-13.4-15.7-23.4-18.6c-3.2-0.9-6.5-1.4-9.9-1.4c-17.5,0-33.7,11.9-38.5,28.3C514.7,525.6,526.9,547.3,547.6,553.4"/>
		</g>
		<g transform="matrix(1,0,0,1,-617.603,-230.348)">
			<path d="M435.9,555c5.3,0.3,10.3-0.3,15.3-1.8c18.5-5.5,31.7-22.1,32.6-41.4c0.6-12.3-3.5-24-11.8-33.1
				c-8.2-9-19.3-14.3-31.3-14.8l-2.2-0.1c-23.9,0-44.5,19.5-45.8,43.4C391.5,532.3,410.9,553.7,435.9,555"/>
		</g>
		<g transform="matrix(1,0,0,1,-617.603,-230.348)">
			<path d="M246.8,543.4c4.5,25.5,26.7,44,52.6,44h0c3.1,0,6.2-0.3,9.3-0.8c2-0.3,3.9-0.8,5.8-1.3c26-7.7,42.1-33.7,37.4-60.4
				c-4.6-25.4-26.7-43.9-52.6-43.9c-3.1,0-6.2,0.3-9.3,0.8C261.1,487.1,241.7,514.8,246.8,543.4"/>
		</g>
		<g transform="matrix(1,0,0,1,-617.603,-230.348)">
			<path d="M775.8,743.8c5.1-5.7,7.7-13.1,7.3-20.8c-0.4-7.7-3.8-14.7-9.5-19.8c-5.1-4.6-11.9-7.2-19.1-7.2
				c-8.4,0-16.2,3.4-21.3,9.2c-5.2,5.7-7.8,13.1-7.4,20.8c0.4,7.7,3.7,14.7,9.4,19.9c5.4,4.8,12.2,7.4,19.3,7.4
				c2.8,0,5.6-0.4,8.3-1.2C767.7,750.6,772.2,747.7,775.8,743.8"/>
		</g>
		<g transform="matrix(1,0,0,1,-617.603,-230.348)">
			<path d="M710.7,673.3c-2.5-8.6-8.2-15.8-16.1-20.1c-4.7-2.5-10-3.9-15.6-3.9c-12.6,0-24.1,6.6-30.1,17.1
				c-8.7,16.2-2.8,36.7,13.4,45.5c5,2.7,10.6,4.2,16.1,4.2c3.2,0,6.4-0.5,9.5-1.4c8.6-2.5,15.6-8.2,19.7-16
				C712.1,690.9,713.1,681.9,710.7,673.3"/>
		</g>
		<g transform="matrix(1,0,0,1,-617.603,-230.348)">
			<path d="M618,665.2c2.8-10,1.5-20.6-3.5-29.7c-5.1-9.1-13.4-15.7-23.4-18.5c-3.2-0.9-6.6-1.4-10-1.4c-17.5,0-33.6,11.9-38.3,28.2
				c-5.9,20.7,6.1,42.4,26.8,48.3c7.1,2,14.7,2,21.8-0.1C604.3,688.2,614.2,678.2,618,665.2"/>
		</g>
		<g transform="matrix(1,0,0,1,-617.603,-230.348)">
			<path d="M506.1,650.7c0.7-12.2-3.5-23.9-11.7-33c-8.2-9-19.3-14.3-31.4-14.9c-0.8,0-1.6-0.1-2.4-0.1c-23.5,0-44.4,19.8-45.6,43.2
				c-1.3,25.1,18.1,46.6,43.2,47.9c0.9,0.1,1.8,0.1,2.6,0.1c4.3,0,8.6-0.6,12.7-1.8C492,686.6,505,670,506.1,650.7"/>
		</g>
		<g transform="matrix(1,0,0,1,-617.603,-230.348)">
			<path d="M321.4,619.7c-3.1,0-6.2,0.3-9.2,0.8c-28.9,5-48.3,32.7-43.2,61.8c2.5,14,10.3,26.3,22,34.4c11.6,8.1,25.9,11.2,39.8,8.7
				c2.1-0.4,4-0.8,6-1.4c25.9-7.6,41.9-33.6,37.3-60.4C369.5,638.2,347.3,619.7,321.4,619.7"/>
		</g>
		<g transform="matrix(1,0,0,1,-617.603,-230.348)">
			<path d="M111.3,762.4c9.8,23.1,32.3,38,57.2,38c5.9,0,11.8-0.8,17.5-2.5c2.4-0.7,4.7-1.6,7.1-2.5c15.4-6.6,27.4-18.8,33.5-34.2
				c6.2-15.4,6-32.2-0.6-47.5c-9.8-23.1-32.3-37.9-57.4-37.9c-8.4,0-16.6,1.7-24.4,5C112.8,694.1,98,730.8,111.3,762.4"/>
		</g>
		<g transform="matrix(1,0,0,1,-617.603,-230.348)">
			<path d="M757,806.6c-4.7-2.6-10.1-4-15.7-4c-12.5,0-24.3,6.7-29.9,16.9c-9,16.2-3.1,36.6,13,45.5c7.9,4.5,17.1,5.5,25.7,2.9
				c8.5-2.5,15.6-8.2,20-16.1C779,835.9,773.1,815.5,757,806.6"/>
		</g>
		<g transform="matrix(1,0,0,1,-617.603,-230.348)">
			<path d="M608.4,827c5.1,9.1,13.4,15.7,23.4,18.6c3.5,1,7.1,1.5,10.7,1.5c3.8,0,7.5-0.5,11.1-1.6c13-3.8,22.9-13.8,26.6-26.8
				c5.8-20.8-6.2-42.4-26.8-48.3c-3.3-0.9-6.7-1.4-10.1-1.4c-17.4,0-33.5,11.8-38.3,28.2C602.1,807.1,603.3,817.8,608.4,827"/>
		</g>
		<g transform="matrix(1,0,0,1,-617.603,-230.348)">
			<path d="M568.5,804c1.2-25.1-18.2-46.6-43.3-47.9l-2.2-0.1c-23.6,0-44.5,19.8-45.7,43.2c-1.3,25.1,18,46.6,43.2,48l2.2,0.1
				c4.5,0,8.8-0.6,13-1.9C554.2,840,567.4,823.3,568.5,804"/>
		</g>
		<g transform="matrix(1,0,0,1,-617.603,-230.348)">
			<path d="M383.8,879.7c3.1,0,6.2-0.3,9.2-0.8c2-0.3,3.9-0.8,5.8-1.4c26.1-7.7,42.2-33.7,37.4-60.4c-4.6-25.5-26.7-44.1-52.6-44.1
				c-3.1,0-6.2,0.3-9.3,0.8c-28.9,5.1-48.2,32.9-43.1,62C335.9,861.2,358,879.7,383.8,879.7"/>
		</g>
		<g transform="matrix(1,0,0,1,-617.603,-230.348)">
			<path d="M288.9,914.7c6.3-15.5,6.1-32.5-0.4-47.7c-9.7-22.6-33-37.9-57.9-37.9c-8.3,0-16.4,1.7-23.9,4.9
				c-15.4,6.5-27.3,18.5-33.5,33.9c-6.3,15.5-6.1,32.5,0.5,47.9c9.8,23.1,32.4,38,57.4,38h0c5.9,0,11.9-0.9,17.6-2.6
				c2.3-0.7,4.6-1.5,6.8-2.5C270.8,942.3,282.7,930.2,288.9,914.7"/>
		</g>
		<g transform="matrix(1,0,0,1,-617.603,-230.348)">
			<path d="M132.1,963.4c-13.7-18.8-35.9-30.1-59.2-30.1c-7,0-13.9,1-20.6,3c-8,2.3-15.5,6.1-22.3,11c-15.7,11.4-26,28.4-29.1,47.7
				c-3,19.3,1.6,38.6,13.1,54.3c13.7,18.9,35.8,30.1,59.2,30.1c7,0,13.9-1,20.6-3c8-2.3,15.5-6,22.3-11
				C148.6,1041.7,155.8,995.9,132.1,963.4"/>
		</g>
		<g transform="matrix(1,0,0,1,-617.603,-230.348)">
			<path d="M917.5,1219.2c-1.1-12.7-12-22.7-24.8-22.7c-0.7,0-1.4,0-2.2,0.1c-10.6,0.9-19.3,8.5-21.9,19c-0.6,2.6-0.8,5.2-0.6,8
				c1.2,12.6,12,22.5,24.6,22.5c0.7,0,1.4,0,2.1-0.1c6.4-0.5,12.5-3.7,16.8-8.8C916,1232,918.1,1225.7,917.5,1219.2"/>
		</g>
		<g transform="matrix(1,0,0,1,-617.603,-230.348)">
			<path d="M935,1191.6c-1.3,5.3-1,10.7,0.7,15.8c4.8,14.8,21.4,23.3,36.3,18.4c6.9-2.3,12.9-7.6,16.4-14.5c3.5-7,4.2-14.9,1.9-21.8
				c-2.3-7.4-7.4-13.3-14.3-16.8c-4-2.1-8.5-3.2-12.9-3.2c-3,0-6,0.5-8.9,1.5C944.4,1174.1,937.3,1181.8,935,1191.6"/>
		</g>
		<g transform="matrix(1,0,0,1,-617.603,-230.348)">
			<path d="M1004.6,1145.9c-2.1,8.6-0.7,17.5,3.9,25.1c4.6,7.7,11.9,13.1,20.6,15.3c2.7,0.7,5.5,1,8.2,1h0c6,0,11.9-1.7,17.1-4.8
				c15.3-9.3,20.7-30.8,11.5-46.1c-6.1-9.9-17.1-16.1-28.9-16.1c-6,0-12,1.6-17.1,4.7C1012.2,1129.7,1006.7,1137.1,1004.6,1145.9"/>
		</g>
		<g transform="matrix(1,0,0,1,-617.603,-230.348)">
			<path d="M1110.6,1121.9c10.1,0,19.8-3.9,27.1-11c14.9-14.4,15.3-40.3,0.8-55.4c-7.4-7.5-17.3-11.7-28-11.7
				c-10.3,0-20,3.9-27.5,11c-5.2,5.1-8.8,11.5-10.6,18.7c-3.2,13.2,0.5,26.8,9.9,36.5c7.3,7.5,17,11.7,27.5,11.9l0.7,5.7h0V1121.9z"
				/>
		</g>
		<g transform="matrix(1,0,0,1,-617.603,-230.348)">
			<path d="M1214,1007c13.4-20.7,7.2-49.7-13.5-63.3c-7.4-4.7-15.9-7.2-24.7-7.2c-15.6,0-29.9,7.8-38.3,20.8
				c-2.8,4.4-4.9,9.1-6.1,14.2c-4.5,18.8,3.3,38.5,19.5,48.9c7.4,4.8,16,7.4,24.8,7.4c3.3,0,6.6-0.3,9.8-1
				C1197.4,1024.2,1207.5,1017.1,1214,1007"/>
		</g>
		<g transform="matrix(1,0,0,1,-617.603,-230.348)">
			<path d="M1242.2,799.3c-5.9-2.1-12-3.2-18.1-3.2c-22.4,0-42.6,14.1-50.3,35.2c-0.7,1.9-1.3,3.8-1.7,5.7
				c-6.4,26.4,8.1,53.3,33.6,62.6c5.8,2.1,11.8,3.1,18,3.1c22.5,0,42.7-14.1,50.3-35.1C1283.7,839.9,1269.5,809.2,1242.2,799.3"/>
		</g>
		<g transform="matrix(1,0,0,1,-617.603,-230.348)">
			<path d="M803.5,1141.7c-1.3,5.1-1,10.5,0.6,15.5c2.4,7.3,7.5,13.2,14.4,16.7c4.1,2.1,8.4,3.1,12.9,3.1c3,0,6.1-0.5,9-1.5
				c7-2.2,13-7.5,16.5-14.5c3.5-6.9,4.2-14.8,1.9-21.6c-2.4-7.3-7.4-13.3-14.3-16.8c-4.1-2.1-8.5-3.2-13.1-3.2c-3,0-6,0.5-8.9,1.4
				C813,1124.1,805.8,1131.9,803.5,1141.7"/>
		</g>
		<g transform="matrix(1,0,0,1,-617.603,-230.348)">
			<path d="M897.7,1136.1c8.5,2.1,17.9,0.7,25.5-3.9c15.4-9.3,20.6-30.5,11.4-46.2c-6.2-10-17-16-28.9-16c-6.1,0-12,1.7-17.2,4.8
				c-7.7,4.7-13.1,12.1-15.2,20.8c-2.1,8.7-0.7,17.6,3.9,25.1C881.7,1128.5,889,1133.9,897.7,1136.1"/>
		</g>
		<g transform="matrix(1,0,0,1,-617.603,-230.348)">
			<path d="M979,1071.7c10.3,0,20-3.9,27.2-11c7.1-6.9,11.3-16.8,11.5-27.4c0.2-10.6-3.7-20.7-10.6-27.9
				c-7.4-7.6-17.4-11.9-28.1-11.9c-10.2,0-19.9,3.9-27.2,11c-5.3,5.2-9.1,11.8-10.8,18.9c-3.1,13.1,0.6,26.7,9.9,36.5
				c7.3,7.4,17,11.6,27.5,11.8l0.5,5.7h0V1071.7z"/>
		</g>
		<g transform="matrix(1,0,0,1,-617.603,-230.348)">
			<path d="M1082.6,956.8c6.5-9.9,8.6-22,6.1-34.2c-2.5-12-9.6-22.6-19.4-29c-7.4-4.8-15.9-7.3-24.7-7.3c-15.6,0-29.9,7.8-38.4,20.8
				c-2.8,4.3-4.9,9.1-6.1,14.2c-4.5,18.7,3.4,38.3,19.6,48.9c7.4,4.8,16,7.4,24.7,7.4c3.2,0,6.5-0.3,9.7-1
				C1065.9,974,1076,967,1082.6,956.8"/>
		</g>
		<g transform="matrix(1,0,0,1,-617.603,-230.348)">
			<path d="M1074.3,849.4c5.7,2.1,11.8,3.1,17.9,3.1c22.5,0,42.7-14.1,50.4-35.1c10.1-27.5-4.2-58.2-31.9-68.3
				c-5.9-2.1-12-3.2-18.2-3.2c-7.8,0-15.4,1.7-22.6,5.1c-12.9,6-22.7,16.7-27.5,30.1c-0.7,2-1.3,3.9-1.8,5.9
				C1034.3,813.2,1048.8,840,1074.3,849.4"/>
		</g>
		<g transform="matrix(1,0,0,1,-617.603,-230.348)">
			<path d="M1105,696.3c2.6,0.3,5.1,0.5,7.6,0.5c31.4,0,58-23.6,61.8-54.8c4.1-34.1-20.2-65.2-54.3-69.4c-2.6-0.3-5.1-0.5-7.7-0.5
				c-28.8,0-53.7,19.5-60.4,47.4c-0.6,2.4-1,4.9-1.3,7.4c-2,16.7,2.6,33.1,12.9,46.2C1073.9,686.1,1088.6,694.3,1105,696.3"/>
		</g>
		<g transform="matrix(1,0,0,1,-617.603,-230.348)">
			<path d="M774.1,1088.6c2.1-8.8,0.9-17.9-3.5-25c-6-10-17-16.2-28.8-16.2c-6,0-12,1.7-17.2,4.8c-7.8,4.6-13.3,12-15.4,20.8
				c-2.1,8.6-0.7,17.6,3.9,25.4c6.1,10,16.8,16,28.7,16c6.1,0,12-1.7,17.2-4.8C766.5,1105.1,771.9,1097.5,774.1,1088.6"/>
		</g>
		<g transform="matrix(1,0,0,1,-617.603,-230.348)">
			<path d="M815.2,1048.9L815.2,1048.9c10.2,0,19.8-3.9,27.1-10.9c15-14.4,15.5-40.2,1-55.3c-7.3-7.5-17.1-11.8-27.6-12h0
				c-10.7,0-20.4,3.9-27.8,11c-5.3,5.2-9.1,11.8-10.8,19c-3.2,13.1,0.6,26.8,9.9,36.5C794.5,1044.7,804.5,1048.9,815.2,1048.9"/>
		</g>
		<g transform="matrix(1,0,0,1,-617.603,-230.348)">
			<path d="M855.6,947.6c7.4,4.8,15.9,7.3,24.7,7.3c15.6,0,30-7.8,38.4-20.9c13.2-20.4,6.9-49.8-13.5-63c-7.4-4.8-16-7.4-24.8-7.4
				c-15.6,0-29.9,7.8-38.4,20.8c-2.8,4.4-4.9,9.1-6.1,14.1C831.5,917.2,839.4,936.9,855.6,947.6"/>
		</g>
		<g transform="matrix(1,0,0,1,-617.603,-230.348)">
			<path d="M946.7,726.3c-5.8-2.1-11.9-3.2-18-3.2c-22.4,0-42.5,14.1-50.2,35.1c-0.7,1.9-1.3,3.8-1.7,5.7
				c-6.4,26.5,8.1,53.4,33.6,62.6c5.8,2.1,12,3.2,18.1,3.2c22.4,0,42.6-14.1,50.3-35.1C988.7,767.1,974.3,736.4,946.7,726.3"/>
		</g>
		<g transform="matrix(1,0,0,1,-617.603,-230.348)">
			<path d="M956.2,549.7c-2.5-0.3-5.1-0.5-7.6-0.5c-28.9,0-53.8,19.6-60.6,47.7c-0.6,2.3-1,4.7-1.3,7.1c-2,16.6,2.5,32.9,12.8,46
				c10.3,13.2,25.1,21.5,41.5,23.5c2.4,0.3,4.8,0.4,7.2,0.4c31.3,0,58.6-24.1,62.2-54.8c2.1-16.6-2.4-32.9-12.6-46
				C987.7,560.1,972.8,551.7,956.2,549.7"/>
		</g>
		<g transform="matrix(1,0,0,1,-617.603,-230.348)">
			<path d="M927.9,490.3c2.6,0,5.2-0.1,7.8-0.4c30.7-3.3,56.1-25.6,63.3-55.5c2-8.1,2.5-16.5,1.6-24.9c-4-37.2-35.1-65.2-72.5-65.2
				c-2.6,0-5.1,0.1-7.7,0.4c-30.7,3.2-56.2,25.5-63.4,55.5c-1.9,8.1-2.5,16.5-1.6,24.8C859.4,462.2,890.6,490.3,927.9,490.3"/>
		</g>
		<g transform="matrix(1,0,0,1,-617.603,-230.348)">
			<path d="M349,1001.8c-1.9-1.8-4.1-3.3-6.6-4.5c-3.2-1.5-6.7-2.2-10.3-2.2c-9.6,0-18.5,5.6-22.5,14.2c-2.7,5.8-3,12.7-0.8,19
				c2.3,6.3,6.8,11.3,12.7,14.1c3.3,1.5,6.8,2.3,10.4,2.3h0c9.6,0,18.5-5.6,22.6-14.3C359,1020.7,356.8,1009.2,349,1001.8"/>
		</g>
		<g transform="matrix(1,0,0,1,-617.603,-230.348)">
			<path d="M322.7,1063.8c-2-0.4-4.1-0.7-6.1-0.7c-13.5,0-25.3,9.6-28.1,22.9c-1.5,7.1,0.1,15,4.4,21.5c4.3,6.5,10.8,11.1,17.9,12.5
				c7.7,1.7,15.2,0.2,21.7-4c6.5-4.2,10.8-10.6,12.3-18.1c2.2-9.9-0.9-20-8.2-26.9C332.7,1067.4,327.9,1064.9,322.7,1063.8"/>
		</g>
		<g transform="matrix(1,0,0,1,-617.603,-230.348)">
			<path d="M319,1212.2c18.4-0.4,33.1-15.7,32.9-34.1c-0.2-9.1-3.9-17.5-10.4-23.7c-6.2-5.9-14.3-9.2-22.8-9.2
				c-9.9,0.1-18.2,3.7-24.5,10.2c-6.2,6.5-9.6,15-9.4,23.9c0.4,17.6,16.1,33,33.7,33l0,5.7h0L319,1212.2z"/>
		</g>
		<g transform="matrix(1,0,0,1,-617.603,-230.348)">
			<path d="M344,1316.6c3,0,5.9-0.4,8.7-1.1c20.7-5.3,33.5-26.7,28.4-47.7c-1.8-7-5.6-13.4-10.9-18.5c-7.4-7-17-10.9-27-10.9
				c-3.2,0-6.4,0.4-9.5,1.2c-10.1,2.5-18.6,8.9-24,17.9c-5.4,8.9-6.9,19.4-4.4,29.6C309.4,1303.9,326.1,1316.5,344,1316.6"/>
		</g>
		<g transform="matrix(1,0,0,1,-617.603,-230.348)">
			<path d="M418.5,1425.1c22.4-11.5,31.2-39,19.8-61.3c-2.4-4.6-5.5-8.8-9.2-12.4c-8.5-8.1-19.7-12.6-31.5-12.6
				c-7.2,0-14.3,1.7-20.6,5c-10.9,5.6-19,15.1-22.8,26.8c-3.7,11.6-2.7,23.9,2.8,34.6c7.7,15,23.9,24.7,41.4,24.7
				C405.5,1429.8,412.3,1428.2,418.5,1425.1"/>
		</g>
		<g transform="matrix(1,0,0,1,-617.603,-230.348)">
			<path d="M529.3,1458.1c-1.3-1.5-2.6-3-4.1-4.4c-9.9-9.4-23-14.7-36.7-14.7c-12.5,0-24.7,4.4-34.3,12.5
				c-22.4,19-25.3,52.7-6.4,75.1c10.3,12,25.3,19,41.1,19c12.4,0,24.5-4.4,33.9-12.4C545.3,1514.4,548.2,1480.7,529.3,1458.1"/>
		</g>
		<g transform="matrix(1,0,0,1,-617.603,-230.348)">
			<path d="M431.9,975c-2-0.4-4-0.6-6-0.6c-5.5,0-11,1.6-15.7,4.7c-6.4,4.2-10.8,10.7-12.4,18.2c-1.6,7.2,0,15,4.2,21.6
				c4.2,6.5,10.7,11,17.8,12.5c7.7,1.7,15.3,0.2,21.7-4c6.4-4.1,10.9-10.5,12.5-18.1c2-9.9-1.1-20-8.4-27
				C441.8,978.6,437.1,976.1,431.9,975"/>
		</g>
		<g transform="matrix(1,0,0,1,-617.603,-230.348)">
			<path d="M428.3,1123.5c18.4-0.6,33.2-16,32.7-34.3c-0.2-9-3.9-17.4-10.4-23.6c-6.2-5.9-14.2-9.1-22.6-9.1l-1.2,0
				c-8.9,0.1-17.2,3.7-23.4,10.1c-6.2,6.5-9.6,15-9.4,24c0.4,17.8,16,32.9,34,32.9l0,5.7L428.3,1123.5z"/>
		</g>
		<g transform="matrix(1,0,0,1,-617.603,-230.348)">
			<path d="M418.7,1168.8c-5.3,9-6.9,19.4-4.3,29.5c4.2,16.8,20.8,29.5,38.6,29.5c3,0,5.9-0.4,8.8-1.1c20.9-5.2,33.6-26.5,28.4-47.4
				c-1.8-7.2-5.6-13.7-11-18.8c-7.3-7-16.9-10.8-27-10.8c-3.2,0-6.4,0.4-9.5,1.2C432.7,1153.5,424.1,1159.8,418.7,1168.8"/>
		</g>
		<g transform="matrix(1,0,0,1,-617.603,-230.348)">
			<path d="M463.4,1281.8c-3.7,11.6-2.7,23.9,2.8,34.6c7.6,15,23.8,24.7,41.4,24.7h0c7,0,13.9-1.6,20-4.7
				c22.4-11.4,31.3-39,19.9-61.4c-2.3-4.6-5.4-8.8-9.2-12.4c-8.4-8-19.6-12.4-31.3-12.4c-7.2,0-14.4,1.7-20.8,5
				C475.2,1260.6,467.1,1270.1,463.4,1281.8"/>
		</g>
		<g transform="matrix(1,0,0,1,-617.603,-230.348)">
			<path d="M638.5,1369.5c-1.4-1.6-2.8-3.1-4.2-4.5c-9.9-9.4-22.8-14.6-36.5-14.6c-12.5,0-24.7,4.4-34.4,12.5
				c-22.3,19-25.2,52.7-6.4,75.2c10.1,12.1,24.9,19.1,40.7,19.1c12.5,0,24.8-4.4,34.4-12.5c10.9-9.2,17.6-22.1,18.8-36.3
				C652.1,1394.2,647.7,1380.4,638.5,1369.5"/>
		</g>
		<g transform="matrix(1,0,0,1,-617.603,-230.348)">
			<path d="M773.6,1458.7c-1.8-1.7-3.7-3.3-5.8-4.9c-11-8.2-23.9-12.6-37.5-12.6c-3,0-6,0.2-9,0.7c-16.4,2.3-30.9,10.9-40.8,24.2
				c-10,13.2-14.2,29.6-11.9,46c2.3,16.6,10.9,31.2,24.3,41.3c10.9,8.2,23.8,12.5,37.4,12.5c19.8,0,38-9,49.9-24.8
				C799.3,1515.8,796.4,1480.4,773.6,1458.7"/>
		</g>
		<g transform="matrix(1,0,0,1,-617.603,-230.348)">
			<path d="M529.7,992.8c18.5-0.3,33.3-15.6,32.9-34.1c-0.1-9.1-3.8-17.5-10.3-23.8c-6.3-6-14.7-9.3-23.6-9.3
				c-18.6,0.4-33.4,15.8-33,34.2c0.3,17.6,15.9,33,33.3,33v5.7h0L529.7,992.8z"/>
		</g>
		<g transform="matrix(1,0,0,1,-617.603,-230.348)">
			<path d="M516,1067.7c4.2,16.9,20.8,29.6,38.7,29.6c3,0,5.9-0.3,8.7-1c10.2-2.5,18.8-8.9,24.2-17.9c5.3-8.9,6.9-19.4,4.4-29.6
				c-1.9-7.2-5.7-13.7-11.1-18.9c-7.3-7-16.9-10.8-26.9-10.8c-3.2,0-6.4,0.4-9.6,1.2C523.5,1025.7,510.8,1047,516,1067.7"/>
		</g>
		<g transform="matrix(1,0,0,1,-617.603,-230.348)">
			<path d="M567.9,1185.9c7.6,14.9,23.8,24.6,41.3,24.6h0c7,0,13.9-1.6,20-4.7c22.4-11.4,31.3-38.9,20-61.4
				c-2.4-4.6-5.5-8.8-9.2-12.3c-8.5-8.1-19.7-12.5-31.5-12.5c-7.2,0-14.3,1.7-20.7,4.9C565.3,1135.9,556.4,1163.5,567.9,1185.9"/>
		</g>
		<g transform="matrix(1,0,0,1,-617.603,-230.348)">
			<path d="M658.5,1307.6c10.1,12.1,25,19,40.7,19c12.6,0,24.8-4.5,34.5-12.6c22.4-18.9,25.3-52.6,6.5-75c-1.3-1.5-2.6-3-4.1-4.3
				c-10-9.5-23-14.8-36.8-14.8c-12.5,0-24.7,4.5-34.3,12.5C642.6,1251.3,639.6,1285.1,658.5,1307.6"/>
		</g>
		<g transform="matrix(1,0,0,1,-617.603,-230.348)">
			<path d="M881.9,1410.5c19-25.4,16.1-60.9-6.8-82.6c-1.7-1.7-3.5-3.2-5.5-4.7c-10.9-8.2-23.8-12.6-37.4-12.6
				c-2.9,0-5.9,0.2-8.9,0.6c-16.6,2.3-31.2,10.9-41.1,24.2c-9.9,13.3-14,29.8-11.6,46.6c2.4,16.5,10.9,31,24,40.7
				c10.9,8.3,23.9,12.7,37.4,12.7c2.9,0,5.7-0.2,8.6-0.6C857.2,1432.6,871.9,1423.9,881.9,1410.5"/>
		</g>
		<g transform="matrix(1,0,0,1,-617.603,-230.348)">
			<path d="M1061,1399.3c-6-5.7-13-10.4-20.7-13.8c-9.4-4.1-19.3-6.2-29.5-6.2c-29,0-55.2,17-66.9,43.4
				c-12.5,28.2-5.9,61.4,16.4,82.6c6,5.7,13,10.3,20.8,13.8c9.3,4.1,19.3,6.3,29.4,6.3c28.9,0,55.1-17,66.8-43.4
				C1090,1453.8,1083.4,1420.6,1061,1399.3"/>
		</g>
	</g>
</g>
</svg>
